<svg xmlns="http://www.w3.org/2000/svg" viewBox="0 0 176.8 176.8"><style>.st0{fill:#3D3838;} .st1{fill:#FFFFFF;}</style><circle class="st0" cx="88.4" cy="88.5" r="87.3"/><circle class="st1" cx="88.4" cy="88.5" r="80.8"/><circle class="st0" cx="88.4" cy="88.5" r="72.7"/><path class="st1" d="M61.5 87.8V80v-4.8c-3.7-3.4-5-6.3-5-10.4 0-6.8 6.1-10.5 13.4-10.5 9 0 12.3 3.7 13 4.8.6 1 1.4 3.6 1.5 4.8.1.8.2 1.3.9 1.3s.8-.7.8-2.2c0-6.6.4-9.8.4-10.3 0-.6-.2-.7-1-.7s-1.6 0-3.5-.5c-2.4-.6-6.4-1.1-10.4-1.1-13.2 0-22.3 6.9-22.3 18.3 0 6.2 3 11.8 12.2 19.1z"/><path class="st1" d="M64.2 118.1l-.3 1.2c.8.1 1.4.1 1.9.1 2.5 0 4.7-.4 6.5-1.2-.6-1.4-.8-4.4-.9-6.5-.1-1.8-.1-10.9-.1-21.1V58c0-.2 0-.3.1-.4-.5 0-1-.1-1.6-.1-1.8 0-3.7.3-5.3.9 0 .2.1.4.1.6.2 3.1.2 5.8.2 20.9V97c0 9.5 0 17.1-.6 21.1zM90.5 51.9c.1.3.1.5.1.8 0 .1 0 .5-.1 1s-.1 1.2-.2 2.2c9 .9 18 3.1 25.5 10.1 4.5 4.1 9.7 10.2 9.7 21.8 0 11.7-2.5 18.5-8.5 24.4-6 5.9-15.4 9.9-30.9 10.1-1.1 1.5-3.1 2.9-4.9 4 3.4.2 6.8.2 9.9.2 18.6 0 28.6-7.1 33.3-11.6 6.1-5.7 11.8-15.1 11.8-27.3 0-11.5-5.2-19.6-10.7-24.7-9.9-9.2-24.1-10.8-35-11z"/><path class="st1" d="M88.8 106.6c0-7.8-3.7-14.2-14.2-21.8V97.9c4.3 3.8 6.3 6.9 6.3 11.9 0 7.3-5.1 12.9-15.1 12.9-6.7 0-14.3-2.5-15.9-9.6-.3-1.4-.3-2.7-.3-3.5 0-.8-.3-1.1-.9-1.1-.6 0-.8.6-.8 1.6-.1 1.6-.6 5.5-.6 10.3 0 2.6.1 3 1.5 3.7 4.1 2 9.9 2.6 14.6 2.6 5.5 0 11.8-.7 16-3.4 7.2-4.9 9.4-11 9.4-16.7z"/></svg>
